<svg width="39" height="45" viewBox="0 0 39 45" fill="none" xmlns="http://www.w3.org/2000/svg">
<path d="M32.0184 43.1945C29.5687 45.5693 26.894 45.1943 24.3194 44.0694C21.5947 42.9196 19.095 42.8696 16.2204 44.0694C12.6208 45.6192 10.7211 45.1693 8.57136 43.1945C-3.62711 30.6211 -1.82733 11.4736 12.0209 10.7736C15.3955 10.9486 17.7452 12.6234 19.7199 12.7734C22.6696 12.1735 25.4942 10.4487 28.6438 10.6737C32.4183 10.9736 35.268 12.4734 37.1427 15.1731C29.3437 19.8475 31.1935 30.1212 38.3426 32.9958C36.9178 36.7454 35.068 40.4699 31.9934 43.2195L32.0184 43.1945ZM19.47 10.6237C19.095 5.04936 23.6195 0.449943 28.8188 0C29.5437 6.44919 22.9695 11.2486 19.47 10.6237Z" fill="#EE769A"/>
</svg>
