<svg width="46" height="45" viewBox="0 0 46 45" fill="none" xmlns="http://www.w3.org/2000/svg">
<path d="M13.1945 0H32.0945C39.2945 0 45.1445 5.85 45.1445 13.05V31.95C45.1445 35.4111 43.7696 38.7304 41.3223 41.1777C38.8749 43.6251 35.5556 45 32.0945 45H13.1945C5.99453 45 0.144531 39.15 0.144531 31.95V13.05C0.144531 9.58893 1.51944 6.26961 3.96679 3.82226C6.41414 1.37491 9.73346 0 13.1945 0ZM12.7445 4.5C10.5963 4.5 8.53601 5.35339 7.01697 6.87244C5.49792 8.39148 4.64453 10.4517 4.64453 12.6V32.4C4.64453 36.8775 8.26703 40.5 12.7445 40.5H32.5445C34.6928 40.5 36.7531 39.6466 38.2721 38.1276C39.7911 36.6085 40.6445 34.5483 40.6445 32.4V12.6C40.6445 8.1225 37.022 4.5 32.5445 4.5H12.7445ZM34.457 7.875C35.203 7.875 35.9183 8.17132 36.4458 8.69876C36.9732 9.22621 37.2695 9.94158 37.2695 10.6875C37.2695 11.4334 36.9732 12.1488 36.4458 12.6762C35.9183 13.2037 35.203 13.5 34.457 13.5C33.7111 13.5 32.9957 13.2037 32.4683 12.6762C31.9408 12.1488 31.6445 11.4334 31.6445 10.6875C31.6445 9.94158 31.9408 9.22621 32.4683 8.69876C32.9957 8.17132 33.7111 7.875 34.457 7.875ZM22.6445 11.25C25.6282 11.25 28.4897 12.4353 30.5995 14.545C32.7093 16.6548 33.8945 19.5163 33.8945 22.5C33.8945 25.4837 32.7093 28.3452 30.5995 30.455C28.4897 32.5647 25.6282 33.75 22.6445 33.75C19.6608 33.75 16.7994 32.5647 14.6896 30.455C12.5798 28.3452 11.3945 25.4837 11.3945 22.5C11.3945 19.5163 12.5798 16.6548 14.6896 14.545C16.7994 12.4353 19.6608 11.25 22.6445 11.25ZM22.6445 15.75C20.8543 15.75 19.1374 16.4612 17.8716 17.727C16.6057 18.9929 15.8945 20.7098 15.8945 22.5C15.8945 24.2902 16.6057 26.0071 17.8716 27.273C19.1374 28.5388 20.8543 29.25 22.6445 29.25C24.4347 29.25 26.1516 28.5388 27.4175 27.273C28.6834 26.0071 29.3945 24.2902 29.3945 22.5C29.3945 20.7098 28.6834 18.9929 27.4175 17.727C26.1516 16.4612 24.4347 15.75 22.6445 15.75Z" fill="#EE769A"/>
</svg>
