<svg width="46" height="45" viewBox="0 0 46 45" fill="none" xmlns="http://www.w3.org/2000/svg">
<path d="M36.1187 20.025C28.9187 15.75 16.8813 15.3 10.0188 17.4375C8.89375 17.775 7.76875 17.1 7.43125 16.0875C7.09375 14.9625 7.76875 13.8375 8.78125 13.5C16.7687 11.1375 29.9313 11.5875 38.2563 16.5375C39.2687 17.1 39.6063 18.45 39.0438 19.4625C38.4813 20.25 37.1312 20.5875 36.1187 20.025ZM35.8937 26.325C35.3312 27.1125 34.3187 27.45 33.5312 26.8875C27.4562 23.175 18.2313 22.05 11.1438 24.3C10.2438 24.525 9.23125 24.075 9.00625 23.175C8.78125 22.275 9.23125 21.2625 10.1312 21.0375C18.3438 18.5625 28.4688 19.8 35.4438 24.075C36.1188 24.4125 36.4562 25.5375 35.8937 26.325ZM33.1938 32.5125C32.7438 33.1875 31.9562 33.4125 31.2812 32.9625C25.9937 29.7 19.3562 29.025 11.4812 30.825C10.6937 31.05 10.0187 30.4875 9.79375 29.8125C9.56875 29.025 10.1313 28.35 10.8063 28.125C19.3563 26.2125 26.7813 27 32.6313 30.6C33.4188 30.9375 33.5312 31.8375 33.1938 32.5125ZM22.8438 0C19.889 0 16.9632 0.58198 14.2334 1.71271C11.5035 2.84344 9.02317 4.50078 6.93385 6.5901C2.71428 10.8097 0.34375 16.5326 0.34375 22.5C0.34375 28.4674 2.71428 34.1903 6.93385 38.4099C9.02317 40.4992 11.5035 42.1566 14.2334 43.2873C16.9632 44.418 19.889 45 22.8438 45C28.8111 45 34.5341 42.6295 38.7537 38.4099C42.9732 34.1903 45.3438 28.4674 45.3438 22.5C45.3438 19.5453 44.7618 16.6194 43.631 13.8896C42.5003 11.1598 40.843 8.67942 38.7537 6.5901C36.6643 4.50078 34.184 2.84344 31.4541 1.71271C28.7243 0.58198 25.7985 0 22.8438 0Z" fill="#EE769A"/>
</svg>
