<svg width="57" height="45" viewBox="0 0 57 45" fill="none" xmlns="http://www.w3.org/2000/svg">
<path d="M56.146 5.29412C54.1078 6.22059 51.9107 6.82941 49.6342 7.12059C51.9636 5.71765 53.7637 3.49412 54.6107 0.820588C52.4137 2.14412 49.9784 3.07059 47.4107 3.6C45.3195 1.32353 42.3813 0 39.046 0C32.8254 0 27.7431 5.08235 27.7431 11.3559C27.7431 12.2559 27.8489 13.1294 28.0342 13.95C18.6107 13.4735 10.2195 8.94706 4.63424 2.09118C3.65483 3.75882 3.09894 5.71765 3.09894 7.78235C3.09894 11.7265 5.08424 15.2206 8.15483 17.2059C6.27541 17.2059 4.52836 16.6765 2.99306 15.8824V15.9618C2.99306 21.4676 6.91071 26.0735 12.0989 27.1059C10.4332 27.5617 8.68449 27.6252 6.99012 27.2912C7.70908 29.5477 9.11713 31.5223 11.0163 32.9372C12.9156 34.3521 15.2104 35.1362 17.5784 35.1794C13.5644 38.357 8.58893 40.0747 3.46953 40.05C2.56953 40.05 1.66953 39.9971 0.769531 39.8912C5.79894 43.1206 11.7813 45 18.1872 45C39.046 45 50.5078 27.6882 50.5078 12.6794C50.5078 12.1765 50.5078 11.7 50.4813 11.1971C52.7048 9.60882 54.6107 7.59706 56.146 5.29412Z" fill="#EE769A"/>
</svg>
