<svg width="65" height="45" viewBox="0 0 65 45" fill="none" xmlns="http://www.w3.org/2000/svg">
<path d="M25.8588 32.1429L42.541 22.5L25.8588 12.8571V32.1429ZM63.016 6.975C63.4338 8.48571 63.7231 10.5107 63.916 13.0821C64.141 15.6536 64.2374 17.8714 64.2374 19.8L64.4302 22.5C64.4302 29.5393 63.916 34.7143 63.016 38.025C62.2124 40.9179 60.3481 42.7821 57.4552 43.5857C55.9445 44.0036 53.1802 44.2929 48.9374 44.4857C44.7588 44.7107 40.9338 44.8071 37.3981 44.8071L32.2874 45C18.8195 45 10.4302 44.4857 7.11953 43.5857C4.22667 42.7821 2.36239 40.9179 1.55882 38.025C1.14096 36.5143 0.851674 34.4893 0.658817 31.9179C0.433817 29.3464 0.337388 27.1286 0.337388 25.2L0.144531 22.5C0.144531 15.4607 0.658817 10.2857 1.55882 6.975C2.36239 4.08214 4.22667 2.21786 7.11953 1.41429C8.63025 0.996429 11.3945 0.707142 15.6374 0.514285C19.816 0.289285 23.641 0.192857 27.1767 0.192857L32.2874 0C45.7552 0 54.1445 0.514286 57.4552 1.41429C60.3481 2.21786 62.2124 4.08214 63.016 6.975Z" fill="#EE769A"/>
</svg>
